# xmcd
#
# Track frame offsets: 
#        150
#        19132
#        38782
#        57207
#        73755
#        91870
#        111757
#        129250
#        149162
#        165142
#
# Disc length: 2390 seconds
#
# Revision: 2
# Processed by: cddbd v1.5.2PL0 Copyright (c) Steve Scherf et al.
# Submitted via: ExactAudioCopy v1.1
#
DISCID=8109540a
DTITLE=Dan Hill - Greatest Hits And More...
DYEAR=1995
DGENRE=Country
TTITLE0=Let Me Show You
TTITLE1=Sometimes When We Touch (ft. Rique Franks) (New Version)
TTITLE2=Shot Down In Flames
TTITLE3=Never Thought (That I Could Love) (New Version)
TTITLE4=How Was I To Know
TTITLE5=Memories
TTITLE6=Can't We Try (ft. Rique Franks) (New Version)
TTITLE7=Healing Power Of Love
TTITLE8=She Is My Lady
TTITLE9=In Your Eyes (ft. Rique Franks)
EXTD=
EXTT0=
EXTT1=
EXTT2=
EXTT3=
EXTT4=
EXTT5=
EXTT6=
EXTT7=
EXTT8=
EXTT9=
PLAYORDER=
